<svg xmlns="http://www.w3.org/2000/svg" fill="none" viewBox="0 0 24 24" id="Warehouse-Truck-Delivery-1--Streamline-Ultimate" height="24" width="24">
  <desc>
    Warehouse Truck Delivery 1 Streamline Icon: https://streamlinehq.com
  </desc>
  <path fill="#66e1ff" d="M20.5 8v4h-2.09a0.967 0.967 0 0 0 -0.7 0.29l-3.02 3.01a2.5 2.5 0 0 0 -3.19 0.7v-3.05a3 3 0 0 1 0.54 -1.72l2.06 -2.95A3.005 3.005 0 0 1 16.562 7H19.5a1 1 0 0 1 1 1Z" stroke-width="1"></path>
  <path fill="#c2f3ff" d="M19.5 7h-2.94a3.006 3.006 0 0 0 -2.46 1.28l-2.06 2.95a3 3 0 0 0 -0.54 1.72v2.5a3 3 0 0 1 0.54 -1.72l2.06 -2.95a3.006 3.006 0 0 1 2.46 -1.28h2.94a1 1 0 0 1 1 1V8a1 1 0 0 0 -1 -1Z" stroke-width="1"></path>
  <path stroke="#191919" stroke-linecap="round" stroke-linejoin="round" d="M20.5 8v4h-2.09a0.967 0.967 0 0 0 -0.7 0.29l-3.02 3.01a2.5 2.5 0 0 0 -3.19 0.7v-3.05a3 3 0 0 1 0.54 -1.72l2.06 -2.95A3.005 3.005 0 0 1 16.562 7H19.5a1 1 0 0 1 1 1Z" stroke-width="1"></path>
  <path fill="#ffef5e" d="M22.5 13v3.68A2 2 0 0 0 19 18h-3.05a2.509 2.509 0 0 0 -1.26 -2.7l3.02 -3.01a0.965 0.965 0 0 1 0.7 -0.29h3.09a1 1 0 0 1 1 1Z" stroke-width="1"></path>
  <path fill="#808080" d="M16 17.5a2.5 2.5 0 1 1 -4.5 -1.5 2.5 2.5 0 0 1 4.5 1.5Z" stroke-width="1"></path>
  <path fill="#808080" d="M23 18a2 2 0 1 1 -3.999 0.006A2 2 0 0 1 23 18Z" stroke-width="1"></path>
  <path stroke="#191919" stroke-linecap="round" stroke-linejoin="round" d="M8.5 4v15a1 1 0 0 1 -1 1h-5" stroke-width="1"></path>
  <path fill="#ffbc44" d="M0.5 13a1 1 0 0 1 1 -1h4a1 1 0 0 1 1 1v4a1 1 0 0 1 -1 1h-4a1 1 0 0 1 -1 -1v-4Z" stroke-width="1"></path>
  <path fill="#ffdda1" d="M5.5 12h-4a1 1 0 0 0 -1 1v2.5a1 1 0 0 1 1 -1h4a1 1 0 0 1 1 1V13a1 1 0 0 0 -1 -1Z" stroke-width="1"></path>
  <path stroke="#191919" stroke-linecap="round" stroke-linejoin="round" d="M0.5 13a1 1 0 0 1 1 -1h4a1 1 0 0 1 1 1v4a1 1 0 0 1 -1 1h-4a1 1 0 0 1 -1 -1v-4Z" stroke-width="1"></path>
  <path stroke="#191919" stroke-linecap="round" stroke-linejoin="round" d="M3.5 16H5" stroke-width="1"></path>
  <path stroke="#191919" stroke-linecap="round" stroke-linejoin="round" d="M22.5 13v3.68A2 2 0 0 0 19 18h-3.05a2.509 2.509 0 0 0 -1.26 -2.7l3.02 -3.01a0.965 0.965 0 0 1 0.7 -0.29h3.09a1 1 0 0 1 1 1Z" stroke-width="1"></path>
  <path stroke="#191919" stroke-linecap="round" stroke-linejoin="round" d="M16 17.5a2.5 2.5 0 1 1 -4.5 -1.5 2.5 2.5 0 0 1 4.5 1.5v0Z" stroke-width="1"></path>
  <path stroke="#191919" stroke-linecap="round" stroke-linejoin="round" d="M23 18a2 2 0 1 1 -3.999 0.006A2 2 0 0 1 23 18Z" stroke-width="1"></path>
</svg>