<?xml version="1.0" encoding="UTF-8"?>
<svg id="Warehouse-Truck-Delivery-1--Streamline-Ultimate" xmlns="http://www.w3.org/2000/svg" version="1.1" viewBox="0 0 24 24">
  <!-- Generator: Adobe Illustrator 30.2.1, SVG Export Plug-In . SVG Version: 2.1.1 Build 1)  -->
  <defs>
    <style>
      .st0 {
        fill: none;
        stroke: #191919;
        stroke-linecap: round;
        stroke-linejoin: round;
      }

      .st1 {
        fill: gray;
      }

      .st2 {
        fill: #ffef5e;
      }

      .st3 {
        fill: #66e1ff;
      }

      .st4 {
        fill: #c2f3ff;
      }
    </style>
  </defs>
  <path class="st3" d="M4,7h2.9c1,0,1.9.5,2.5,1.3l2.1,2.9c.4.5.5,1.1.5,1.7v3.1c-.7-1-2.1-1.3-3.2-.7l-3-3c-.2-.2-.4-.3-.7-.3h-2.1v-4c0-.6.4-1,1-1Z"/>
  <path class="st4" d="M3,8v2.5c0-.6.4-1,1-1h2.9c1,0,1.9.5,2.5,1.3l2.1,2.9c.4.5.5,1.1.5,1.7v-2.5c0-.6-.2-1.2-.5-1.7l-2.1-2.9c-.6-.8-1.5-1.3-2.5-1.3h-2.9c-.6,0-1,.4-1,1Z"/>
  <path class="st0" d="M4,7h2.9c1,0,1.9.5,2.5,1.3l2.1,2.9c.4.5.5,1.1.5,1.7v3.1c-.7-1-2.1-1.3-3.2-.7l-3-3c-.2-.2-.4-.3-.7-.3h-2.1v-4c0-.6.4-1,1-1Z"/>
  <path class="st2" d="M2,12h3.1c.3,0,.5.1.7.3l3,3c-1,.5-1.5,1.6-1.3,2.7h-3.1c0-.6-.2-1.1-.7-1.5-.8-.7-2.1-.7-2.8.2v-3.7c0-.6.4-1,1-1Z"/>
  <path class="st1" d="M8.5,15.5c1.1-.8,2.7-.6,3.5.5.3.4.5,1,.5,1.5,0,1.4-1.1,2.5-2.5,2.5s-2.5-1.1-2.5-2.5.4-1.5,1-2Z"/>
  <path class="st1" d="M2.5,16c1.1,0,2,.9,2,2,0,0,0,0,0,0,0,1.1-.9,2-2,2-1.1,0-2-.9-2-2,0-1.1.9-1.9,2-2Z"/>
  <path class="st0" d="M21,20h-5c-.6,0-1-.4-1-1V4"/>
  <path class="st0" d="M2,12h3.1c.3,0,.5.1.7.3l3,3c-1,.5-1.5,1.6-1.3,2.7h-3.1c0-.6-.2-1.1-.7-1.5-.8-.7-2.1-.7-2.8.2v-3.7c0-.6.4-1,1-1Z"/>
  <path class="st0" d="M7.5,17.5c0-.8.4-1.5,1-2,1.1-.8,2.7-.6,3.5.5.3.4.5,1,.5,1.5,0,1.4-1.1,2.5-2.5,2.5s-2.5-1.1-2.5-2.5h0Z"/>
  <path class="st0" d="M2.5,16c1.1,0,2,.9,2,2,0,0,0,0,0,0,0,1.1-.9,2-2,2-1.1,0-2-.9-2-2,0-1.1.9-1.9,2-2Z"/>
</svg>